<svg width="20" height="21" viewBox="0 0 20 21" fill="none" xmlns="http://www.w3.org/2000/svg">
<path fill-rule="evenodd" clip-rule="evenodd" d="M0.225964 4.97975C0.297411 4.90812 0.382286 4.85129 0.475729 4.81252C0.569172 4.77374 0.669347 4.75378 0.770516 4.75378C0.871684 4.75378 0.971859 4.77374 1.0653 4.81252C1.15875 4.85129 1.24362 4.90812 1.31507 4.97975L10.0002 13.6664L18.6853 4.97975C18.7568 4.90824 18.8417 4.85151 18.9352 4.81281C19.0286 4.77411 19.1288 4.75419 19.2299 4.75419C19.331 4.75419 19.4312 4.77411 19.5246 4.81281C19.618 4.85151 19.7029 4.90824 19.7744 4.97975C19.846 5.05126 19.9027 5.13616 19.9414 5.22959C19.9801 5.32302 20 5.42317 20 5.5243C20 5.62543 19.9801 5.72557 19.9414 5.81901C19.9027 5.91244 19.846 5.99734 19.7744 6.06885L10.5448 15.2985C10.4733 15.3702 10.3884 15.427 10.295 15.4658C10.2015 15.5045 10.1014 15.5245 10.0002 15.5245C9.89903 15.5245 9.79886 15.5045 9.70542 15.4658C9.61197 15.427 9.5271 15.3702 9.45565 15.2985L0.225964 6.06885C0.154337 5.9974 0.0975082 5.91253 0.0587336 5.81909C0.019959 5.72564 0 5.62547 0 5.5243C0 5.42313 0.019959 5.32296 0.0587336 5.22951C0.0975082 5.13607 0.154337 5.05119 0.225964 4.97975Z" fill="#333333"/>
</svg>
