<svg width="434" height="255" viewBox="0 0 434 255" fill="none" xmlns="http://www.w3.org/2000/svg">
<path d="M315.198 15.8848H81.9526V245.012H315.198V15.8848Z" fill="url(#paint0_linear_69_5541)"/>
<path fill-rule="evenodd" clip-rule="evenodd" d="M327.318 0H95.2109V3.84282H327.318V0Z" fill="black"/>
<path fill-rule="evenodd" clip-rule="evenodd" d="M342.322 29.5082H246.545V33.3513H342.322V29.5082Z" fill="black"/>
<path fill-rule="evenodd" clip-rule="evenodd" d="M328.818 223.469H98.7534V227.312H328.818V223.469Z" fill="black"/>
<path fill-rule="evenodd" clip-rule="evenodd" d="M324.991 0.0943298V64.0364H328.834V0.0943298H324.991ZM324.991 183.308V226.391H328.834V183.308H324.991Z" fill="black"/>
<path fill-rule="evenodd" clip-rule="evenodd" d="M95.1904 1.15744V64.0364H99.0336V1.15744H95.1904Z" fill="black"/>
<path fill-rule="evenodd" clip-rule="evenodd" d="M95.2998 197.371V227.313H99.143V197.371H95.2998Z" fill="black"/>
<path fill-rule="evenodd" clip-rule="evenodd" d="M108.897 183.308V254.808H112.74V183.308H108.897Z" fill="black"/>
<path fill-rule="evenodd" clip-rule="evenodd" d="M347.274 88.1981V166.41H330.208V88.1981H347.274Z" fill="black"/>
<path fill-rule="evenodd" clip-rule="evenodd" d="M219.452 103.501V88.1982H232.865H236.211H279.524C290.079 88.1982 301.605 90.1406 309.449 97.6014C317.339 105.108 319.373 116.396 319.373 126.706C319.373 136.982 317.429 148.073 310.265 156.052C302.99 164.155 291.858 166.411 281.264 166.411H256.887V150.914H269.125V151.086H280.036C285.893 151.086 293.006 150.152 297.205 145.724C301.525 141.17 302.409 133.718 302.409 127.803C302.409 121.761 301.598 113.725 297.3 108.971C293.154 104.385 285.504 103.522 279.626 103.522H259.586L269.125 103.614H232.865V103.502H219.452L219.452 103.501Z" fill="black"/>
<path fill-rule="evenodd" clip-rule="evenodd" d="M219.452 137.207V118.491H236.211V166.41H219.628L187.089 118.029V166.41H170.432V88.1981H186.716L219.452 137.207Z" fill="black"/>
<path fill-rule="evenodd" clip-rule="evenodd" d="M105.736 103.622V118.595H143.908V133.721H105.736V150.986H147.081V166.41H88.6704V88.1981H146.569V103.622H105.736Z" fill="black"/>
<path fill-rule="evenodd" clip-rule="evenodd" d="M30.6248 133.862C30.1899 133.798 29.7465 133.721 29.3232 133.601C24.6413 132.567 18.4272 131.282 14.0594 129.433C5.73784 125.91 1.17768 119.547 1.17768 110.661C1.17768 103.113 4.03418 96.6962 10.5571 92.4479C16.7607 88.4069 23.9038 86.8026 31.3038 86.8026C38.9877 86.8026 46.6521 88.4147 52.7663 93.1781C56.8457 96.3564 59.3209 100.464 60.6157 105.058H41.5385C39.0426 102.728 35.3176 101.828 30.5873 101.828C27.3262 101.828 23.3289 102.262 20.6205 104.209C18.6029 105.659 17.8343 107.544 17.8343 109.963C17.8343 110.667 17.9111 111.445 18.1819 112.105C18.3725 112.569 18.7394 112.945 19.1356 113.251C19.9198 113.856 20.7361 114.436 21.5882 114.947C22.4437 115.46 23.8954 115.877 24.8556 116.144C26.2798 116.54 27.7372 116.934 29.189 117.224C31.0072 117.589 32.8194 117.999 34.6355 118.375C37.1803 118.901 39.7472 119.422 42.2658 120.057C44.8444 120.706 47.4017 121.658 49.8503 122.671C52.4999 123.768 55.1607 125.162 57.34 127.013C59.4663 128.819 61.1124 131.085 62.3986 133.518C63.9363 136.425 64.6024 139.593 64.6024 142.851C64.6024 148.332 63.0652 153.437 59.4433 157.678C56.1905 161.486 52.1463 164.259 47.3201 165.826C42.5547 167.373 37.5434 168.005 32.5322 168.005C23.8714 168.005 15.2031 166.22 8.27476 160.897C4.08252 157.676 1.44016 153.605 0 149.027H19.2946C19.5365 149.233 19.7928 149.431 20.0642 149.62C23.8916 152.287 28.7372 153.079 33.3507 153.079C37.1419 153.079 40.9539 152.425 44.2589 150.537C46.9112 149.022 47.7415 146.662 47.7415 143.748C47.7415 142.536 47.5377 141.277 46.8706 140.233C46.194 139.174 45.0393 138.426 43.9086 137.894C42.105 137.044 40.2383 136.321 38.3187 135.76C35.7957 135.024 33.1959 134.425 30.6247 133.862L30.6248 133.862Z" fill="black"/>
<path fill-rule="evenodd" clip-rule="evenodd" d="M400.023 133.862C399.588 133.798 399.144 133.721 398.721 133.601C394.039 132.567 387.825 131.282 383.457 129.433C375.136 125.91 370.575 119.547 370.575 110.661C370.575 103.114 373.432 96.6962 379.955 92.4479C386.158 88.4069 393.301 86.8026 400.701 86.8026C408.385 86.8026 416.05 88.4148 422.164 93.1781C426.243 96.3564 428.718 100.464 430.013 105.058H410.936C408.44 102.728 404.715 101.828 399.985 101.828C396.724 101.828 392.726 102.262 390.018 104.209C388.001 105.659 387.232 107.544 387.232 109.963C387.232 110.667 387.308 111.445 387.58 112.105C387.77 112.57 388.137 112.945 388.533 113.251C389.318 113.856 390.134 114.436 390.986 114.947C391.841 115.46 393.293 115.877 394.253 116.144C395.678 116.54 397.135 116.934 398.586 117.225C400.404 117.589 402.217 117.999 404.033 118.375C406.578 118.901 409.144 119.422 411.663 120.057C414.242 120.706 416.799 121.658 419.248 122.671C421.898 123.768 424.558 125.162 426.738 127.013C428.864 128.82 430.51 131.085 431.796 133.518C433.333 136.425 434 139.593 434 142.851C434 148.332 432.463 153.437 428.841 157.678C425.588 161.486 421.544 164.259 416.718 165.826C411.952 167.373 406.941 168.005 401.93 168.005C393.269 168.005 384.601 166.22 377.673 160.897C373.48 157.676 370.838 153.605 369.398 149.027H388.692C388.934 149.233 389.19 149.431 389.461 149.62C393.289 152.287 398.135 153.079 402.748 153.079C406.54 153.079 410.352 152.425 413.657 150.537C416.309 149.022 417.139 146.662 417.139 143.748C417.139 142.536 416.935 141.277 416.268 140.233C415.592 139.174 414.437 138.426 413.306 137.894C411.503 137.044 409.635 136.321 407.716 135.76C405.193 135.024 402.594 134.425 400.022 133.862L400.023 133.862Z" fill="black"/>
<path fill-rule="evenodd" clip-rule="evenodd" d="M268.718 118.665V166.41H251.652V118.665H268.718Z" fill="black"/>
<defs>
<linearGradient id="paint0_linear_69_5541" x1="90.4748" y1="224.225" x2="202.316" y2="99.0578" gradientUnits="userSpaceOnUse">
<stop stop-color="#079871"/>
<stop offset="1" stop-color="#2CE8A0"/>
</linearGradient>
</defs>
</svg>
