<svg width="20" height="21" viewBox="0 0 20 21" fill="none" xmlns="http://www.w3.org/2000/svg">
<g clip-path="url(#clip0_293_11871)">
<path d="M14.6781 13.4016C15.8885 11.75 16.4306 9.70223 16.196 7.66806C15.9614 5.63388 14.9674 3.7633 13.4128 2.43053C11.8583 1.09777 9.85782 0.401127 7.81168 0.479968C5.76554 0.55881 3.82461 1.40732 2.37722 2.85576C0.929823 4.30419 0.0826972 6.24572 0.00531989 8.29191C-0.0720574 10.3381 0.626021 12.3381 1.95989 13.8917C3.29377 15.4453 5.16506 16.438 7.19941 16.6711C9.23375 16.9043 11.2811 16.3607 12.9319 15.1491H12.9306C12.9681 15.1991 13.0081 15.2466 13.0531 15.2929L17.8656 20.1054C18.1 20.3399 18.418 20.4718 18.7496 20.4719C19.0812 20.472 19.3992 20.3404 19.6338 20.106C19.8683 19.8716 20.0001 19.5537 20.0003 19.2221C20.0004 18.8905 19.8688 18.5724 19.6344 18.3379L14.8219 13.5254C14.7772 13.4801 14.7291 13.4396 14.6781 13.4016ZM15.0006 8.59662C15.0006 9.49946 14.8228 10.3935 14.4773 11.2276C14.1318 12.0617 13.6254 12.8196 12.987 13.458C12.3486 14.0964 11.5907 14.6028 10.7566 14.9483C9.92247 15.2938 9.02847 15.4716 8.12563 15.4716C7.2228 15.4716 6.3288 15.2938 5.49469 14.9483C4.66057 14.6028 3.90268 14.0964 3.26427 13.458C2.62587 12.8196 2.11946 12.0617 1.77396 11.2276C1.42846 10.3935 1.25063 9.49946 1.25063 8.59662C1.25063 6.77326 1.97496 5.02458 3.26428 3.73526C4.55359 2.44595 6.30227 1.72162 8.12563 1.72162C9.949 1.72162 11.6977 2.44595 12.987 3.73526C14.2763 5.02458 15.0006 6.77326 15.0006 8.59662Z" fill="#333333"/>
</g>
<defs>
<clipPath id="clip0_293_11871">
<rect width="20" height="20" fill="white" transform="translate(0 0.4729)"/>
</clipPath>
</defs>
</svg>
